<?xml version="1.0" encoding="UTF-8"?>
<svg id="Layer_1" data-name="Layer 1" xmlns="http://www.w3.org/2000/svg" width="172" height="34" xmlns:xlink="http://www.w3.org/1999/xlink" viewBox="0 0 172 34">
  <defs>
    <style>
      .cls-1 {
        fill: #002f54;
        fill-rule: evenodd;
      }

      .cls-1, .cls-2 {
        stroke-width: 0px;
      }

      .cls-2 {
        fill: url(#radial-gradient);
      }
    </style>
    <radialGradient id="radial-gradient" cx="31.89" cy="6.78" fx="31.89" fy="6.78" r="27.97" gradientUnits="userSpaceOnUse">
      <stop offset="0" stop-color="#fff"/>
      <stop offset=".06" stop-color="#ebf9fe"/>
      <stop offset=".18" stop-color="#b6e8fa"/>
      <stop offset=".36" stop-color="#60cdf5"/>
      <stop offset=".54" stop-color="#00aeef"/>
      <stop offset="1" stop-color="#002f54"/>
    </radialGradient>
  </defs>
  <path class="cls-2" d="m0,17.03c0,1.59.23,3.14.65,4.6.02.1.05.2.08.29,0,.02.01.04.02.05,2.12,6.84,8.53,11.83,16.08,11.83,3.49,0,6.74-1.07,9.44-2.89.03-.01.05-.03.08-.05.16-.11.31-.22.46-.34,3.1-2.28,5.38-5.59,6.35-9.42.05-.18.1-.36.14-.54,0-.04.01-.08.01-.13.23-1.1.35-2.24.35-3.41,0-2.26-.44-4.46-1.32-6.53-.17-.4-.63-.58-1.03-.41-.4.17-.58.63-.42,1.02.8,1.87,1.2,3.87,1.2,5.92,0,1.26-.16,2.48-.45,3.65-.23.74-.64,1.42-1.2,2.04.01-.26.02-.53.02-.81,0-2.99-.82-6.15-2.36-9.12,1.13-.97,1.85-2.16,2.1-3.5.08-.42-.2-.83-.63-.91-.42-.08-.83.2-.91.63-.16.88-.62,1.69-1.34,2.38-.22-.37-.46-.73-.7-1.09-1.37-2.01-3.01-3.74-4.79-5.13,2.36.15,4.54.72,6.29,1.7.27.16.64.15.9-.06.33-.27.38-.77.1-1.1C26.59,2.19,22.23.25,16.83.25,7.55.25,0,7.78,0,17.03M17.22,2.54c-.71-.27-1.41-.48-2.1-.63.55-.06,1.11-.1,1.68-.1.27,0,.59.32.94.94-.17-.07-.35-.15-.52-.21m1.7-.61c.64.07,1.31.18,2.01.34-.44.23-.89.53-1.35.88-.2-.46-.42-.87-.66-1.22m2.64,1.67c.54-.35,1.03-.58,1.44-.68.79.31,1.56.71,2.3,1.22-1.18-.29-2.44-.47-3.75-.54m-12.7,2.06c.17-.81.66-1.53,1.42-2.13,1.83-.54,3.95-.41,6.19.4-.94.16-1.88.38-2.81.66-1.73.52-3.36,1.22-4.85,2.08-.03-.34-.02-.68.05-1.01m-1.47-.57c-.02.08-.04.16-.06.24-.16.74-.14,1.49.05,2.24-1.69,1.16-3.15,2.53-4.32,4.07-.36.47-.67.95-.96,1.43.87-3.19,2.75-5.97,5.29-7.97m3.37,4.97c-.65-.6-1.14-1.23-1.47-1.87,1.47-.88,3.09-1.6,4.82-2.11,1.03-.31,2.07-.54,3.11-.69-1.5,1.67-3,3.8-4.37,6.2-.78-.45-1.49-.96-2.09-1.53m6.69,3.25c-1.13-.24-2.21-.59-3.2-1.02,1.46-2.55,3.06-4.76,4.63-6.41.49,1.93.91,4.53,1.08,7.74-.83-.03-1.67-.14-2.51-.32m3.1-7.15c1.78,1.32,3.41,3.02,4.78,5.02.26.38.5.76.73,1.15-1.25.72-2.83,1.15-4.54,1.27-.14-2.69-.46-5.28-.97-7.44m-15.67,14.5c-1.33-1.23-2.24-2.52-2.71-3.81.37-1.44,1.08-2.89,2.14-4.28,1-1.32,2.24-2.5,3.66-3.52.41.74.99,1.46,1.72,2.15.7.65,1.51,1.24,2.41,1.75-.25.47-.49.94-.73,1.43-1.39,2.84-2.52,5.88-3.19,8.64-1.23-.69-2.35-1.49-3.29-2.36m10.15,4.9c-1.94-.41-3.77-1.03-5.43-1.8.54-2.44,1.56-5.4,3.17-8.69.23-.48.47-.94.72-1.4,1.12.5,2.35.9,3.63,1.18.98.21,1.95.32,2.9.35.02.59.03,1.19.03,1.81,0,3.67-.29,6.72-.72,9.11-1.4-.06-2.84-.24-4.29-.55m6.58-8.56c0-.61,0-1.22-.03-1.83,1.95-.13,3.75-.63,5.23-1.48,1.37,2.7,2.1,5.54,2.09,8.22,0,.78-.07,1.52-.19,2.21-.7.43-1.51.8-2.42,1.11-1.62.54-3.44.84-5.37.89.46-2.77.69-5.99.69-9.12M2.15,21.19c-.13-.51-.22-1.02-.25-1.55.52.74,1.16,1.47,1.92,2.16,1.14,1.05,2.5,2,4.02,2.81-.31,1.73-.4,3.29-.2,4.55-2.61-1.97-4.57-4.76-5.49-7.97m8.07,9.55s-.1-.07-.15-.1c-.87-.42-1.22-2.35-.77-5.31,1.67.75,3.49,1.34,5.4,1.75,1.45.31,2.89.5,4.3.57-.69,3-1.58,4.57-2.17,4.57-.04,0-.07,0-.11.01-2.33-.02-4.54-.55-6.51-1.5m10.4-3.06c2.21-.03,4.31-.35,6.16-.97.47-.16.91-.33,1.34-.52-.52,1.26-1.28,2.31-2.26,3.09-1.95,1.43-4.25,2.41-6.75,2.79.63-1.08,1.13-2.6,1.52-4.39"/>
  <path class="cls-1" d="m130.58,17.64h2.17v.11c.05.47-.12.93-.46,1.27-.34.33-.81.49-1.28.43-1.42,0-2.27-1.17-2.27-3.12s.81-3.14,2.23-3.14c.47,0,.92.19,1.25.52.33.33.51.78.5,1.25v.11l1.96-.3v-.09c-.1-1.95-1.77-3.45-3.73-3.35-2.78,0-4.37,1.82-4.37,5s1.64,4.96,4.4,4.96,3.75-1.93,3.75-3.54v-1.72h-4.14v1.61Zm18.63-6.3c2.13,0,4.39,1.31,4.39,5s-2.27,4.96-4.39,4.96-4.41-1.31-4.41-4.96,2.28-5,4.41-5Zm18.56.09c2.49,0,3.86,1.2,3.86,3.38,0,2.05-1.35,3.28-3.61,3.28h-1.59v3.15h-2.1v-9.8h3.43Zm-1.34,4.96h1.26c1.21,0,1.83-.52,1.83-1.57s-.68-1.65-1.9-1.65h-1.19v3.22Zm-7.65,3.05c1.14,0,1.69-.71,1.69-2.12l-.04-5.88h2.13v5.74c0,3.44-2.06,4.15-3.79,4.15-1.02.06-2.03-.29-2.79-.98-.76-.87-1.14-2.02-1.04-3.17v-5.74h2.1v5.88c0,1.42.6,2.12,1.73,2.12Zm-7.35-3.1c0,2.73-1.39,3.15-2.23,3.15-1.42,0-2.25-1.12-2.25-3.15s.82-3.14,2.25-3.14c.8,0,2.23.41,2.23,3.14Zm-8.8,1.92c.34.71.65,1.3,1.34,1.3h.5v1.61h-.07c-.33.07-.68.1-1.02.1-1.66,0-2.17-1.13-2.62-2.12-.36-.82-.71-1.53-1.55-1.53h-.92v3.61h-2.13v-9.8h3.49c2.55,0,3.74.99,3.74,3.12.03,1.07-.6,2.05-1.58,2.47.33.37.6.79.8,1.25h.04Zm-3.21-2.25h-1.17v-2.83h1.32c1.11,0,1.74.54,1.74,1.42s-.73,1.42-1.89,1.42Zm-17.61-4.58h2.49l-3.6,4.85,3.81,4.96h-2.52l-3.34-4.51v4.51h-2.13v-9.8h2.13v4.42l3.17-4.42Zm-9.37,6.06l-3.44-6.06h-2.13v9.8h2.13v-5.85l3.43,5.85h2.13v-9.8h-2.1l-.03,6.06Zm-6.06,3.75l-3.59-9.74-.02-.06h-2.08l-3.61,9.8h2.2l.81-2.4h3.28l.85,2.4h2.18Zm-4.66-7.13l-1.07,3.1h2.13l-1.07-3.1Zm-4.85,4.35c.05-1.1-.67-2.09-1.74-2.39h.04c.48-.16,1.09-.64,1.09-2,0-1.75-1.07-2.63-3.21-2.63h-3.79v9.8h4.15c2.2,0,3.45-1.01,3.45-2.78Zm-4.04-3.01c.87,0,1.29-.37,1.29-1.15s-.52-1.13-1.54-1.13h-1.17v2.28h1.43Zm.22,4.07h-1.64v-2.54h1.6c.73,0,1.61.23,1.61,1.27,0,.86-.5,1.27-1.56,1.27Zm-12.37-8.07c3.06,0,4.89,1.89,4.89,5.06,0,3.01-1.63,4.74-4.48,4.74h-3.33v-9.8h2.92Zm.4,8.07h-1.22v-6.35s.79,0,.79,0c1.89,0,2.84,1.11,2.84,3.31,0,1.9-.9,3.04-2.41,3.04Zm-8.63-8.07h-2.13v9.8h6.4v-1.73h-4.26v-8.07Zm-3.58,8.14c-.69,0-.99-.59-1.34-1.3h.03c-.19-.46-.46-.88-.8-1.25.99-.42,1.63-1.4,1.61-2.47,0-2.12-1.19-3.12-3.74-3.12h-3.55v9.8h2.13v-3.61h.9c.84,0,1.19.71,1.55,1.53l.06.13c.46.96.97,2,2.55,2,.34,0,.68-.03,1.02-.1h.07v-1.61h-.5Zm-5.66-3.56h1.17c1.17,0,1.89-.54,1.89-1.42s-.63-1.42-1.73-1.42h-1.32v2.83Zm-7.67-4.67h0,0,0Zm-4.41,5c0-3.66,2.28-5,4.41-5,2.13,0,4.39,1.31,4.39,5s-2.27,4.96-4.39,4.96-4.41-1.3-4.41-4.96Zm4.41,3.15c.83,0,2.23-.41,2.23-3.15s-1.42-3.14-2.23-3.14c-1.42,0-2.25,1.12-2.25,3.14s.8,3.15,2.25,3.15Zm-4.73-8.06h-2.37l-1.72,7.15-1.92-7.15h-1.76l-1.99,7.15-1.65-7.15h-2.44l2.84,9.8h2.37l1.75-6.15,1.71,6.15h2.33l2.84-9.8Z"/>
</svg>